<mxfile host="65bd71144e">
    <diagram id="bVoswQC8T6PlKmy4Bn8u" name="Page-1">
        <mxGraphModel dx="247" dy="1918" grid="1" gridSize="10" guides="1" tooltips="1" connect="1" arrows="1" fold="1" page="1" pageScale="1" pageWidth="827" pageHeight="1169" math="0" shadow="0">
            <root>
                <mxCell id="0"/>
                <mxCell id="1" parent="0"/>
                <mxCell id="130" value="triangleHeight()" style="text;html=1;align=center;verticalAlign=middle;resizable=0;points=[];autosize=1;strokeColor=none;fillColor=none;" parent="1" vertex="1">
                    <mxGeometry x="1576" y="-90" width="100" height="20" as="geometry"/>
                </mxCell>
                <mxCell id="258" style="edgeStyle=none;html=1;entryX=0.5;entryY=0;entryDx=0;entryDy=0;" parent="1" source="196" target="257" edge="1">
                    <mxGeometry relative="1" as="geometry"/>
                </mxCell>
                <mxCell id="196" value="const area: number = this.triangleArea()" style="rounded=1;whiteSpace=wrap;html=1;" parent="1" vertex="1">
                    <mxGeometry x="1511.5" y="205" width="238.5" height="35" as="geometry"/>
                </mxCell>
                <mxCell id="358" style="edgeStyle=none;rounded=0;html=1;entryX=0.5;entryY=0;entryDx=0;entryDy=0;fontSize=11;endArrow=classic;endFill=1;" parent="1" source="198" target="357" edge="1">
                    <mxGeometry relative="1" as="geometry"/>
                </mxCell>
                <mxCell id="198" value="Start" style="ellipse;whiteSpace=wrap;html=1;" parent="1" vertex="1">
                    <mxGeometry x="1571" y="-70" width="120" height="60" as="geometry"/>
                </mxCell>
                <mxCell id="200" value="Stop" style="ellipse;whiteSpace=wrap;html=1;" parent="1" vertex="1">
                    <mxGeometry x="1571" y="650" width="120" height="60" as="geometry"/>
                </mxCell>
                <mxCell id="286" style="edgeStyle=none;html=1;entryX=0.5;entryY=0;entryDx=0;entryDy=0;" parent="1" source="207" target="281" edge="1">
                    <mxGeometry relative="1" as="geometry"/>
                </mxCell>
                <mxCell id="207" value="height = (2* area) / this.sideC" style="rounded=1;whiteSpace=wrap;html=1;" parent="1" vertex="1">
                    <mxGeometry x="1500" y="490" width="260" height="30" as="geometry"/>
                </mxCell>
                <mxCell id="267" value="" style="edgeStyle=none;rounded=0;html=1;endArrow=classic;endFill=1;" parent="1" source="257" target="266" edge="1">
                    <mxGeometry relative="1" as="geometry"/>
                </mxCell>
                <mxCell id="269" value="" style="edgeStyle=none;rounded=0;html=1;endArrow=classic;endFill=1;" parent="1" source="257" target="261" edge="1">
                    <mxGeometry relative="1" as="geometry"/>
                </mxCell>
                <mxCell id="257" value="if (side === 1)" style="rhombus;whiteSpace=wrap;html=1;" parent="1" vertex="1">
                    <mxGeometry x="1580" y="260" width="100" height="80" as="geometry"/>
                </mxCell>
                <mxCell id="276" style="edgeStyle=none;rounded=0;html=1;endArrow=none;endFill=0;" parent="1" source="261" edge="1">
                    <mxGeometry relative="1" as="geometry">
                        <mxPoint x="1990" y="410" as="targetPoint"/>
                        <Array as="points">
                            <mxPoint x="1990" y="300"/>
                        </Array>
                    </mxGeometry>
                </mxCell>
                <mxCell id="261" value="height = (2* area) / this.sideA" style="rounded=1;whiteSpace=wrap;html=1;" parent="1" vertex="1">
                    <mxGeometry x="1710" y="280" width="240" height="35" as="geometry"/>
                </mxCell>
                <mxCell id="272" style="edgeStyle=none;rounded=0;html=1;entryX=0;entryY=0.5;entryDx=0;entryDy=0;endArrow=classic;endFill=1;" parent="1" source="266" target="271" edge="1">
                    <mxGeometry relative="1" as="geometry"/>
                </mxCell>
                <mxCell id="285" style="edgeStyle=none;html=1;entryX=0.5;entryY=0;entryDx=0;entryDy=0;" parent="1" source="266" target="207" edge="1">
                    <mxGeometry relative="1" as="geometry"/>
                </mxCell>
                <mxCell id="266" value="else if&amp;nbsp; (side === 2)" style="rhombus;whiteSpace=wrap;html=1;" parent="1" vertex="1">
                    <mxGeometry x="1581" y="365" width="100" height="80" as="geometry"/>
                </mxCell>
                <mxCell id="275" style="edgeStyle=none;rounded=0;html=1;entryX=1;entryY=0.5;entryDx=0;entryDy=0;endArrow=classic;endFill=1;exitX=1;exitY=0.5;exitDx=0;exitDy=0;" parent="1" source="271" target="281" edge="1">
                    <mxGeometry relative="1" as="geometry">
                        <Array as="points">
                            <mxPoint x="1990" y="405"/>
                            <mxPoint x="1990" y="596"/>
                        </Array>
                    </mxGeometry>
                </mxCell>
                <mxCell id="271" value="height = (2* area) / this.sideB" style="rounded=1;whiteSpace=wrap;html=1;" parent="1" vertex="1">
                    <mxGeometry x="1700" y="385" width="260" height="40" as="geometry"/>
                </mxCell>
                <mxCell id="277" value="no" style="text;html=1;align=center;verticalAlign=middle;resizable=0;points=[];autosize=1;strokeColor=none;fillColor=none;" parent="1" vertex="1">
                    <mxGeometry x="1651" y="330" width="30" height="20" as="geometry"/>
                </mxCell>
                <mxCell id="278" value="yes" style="text;html=1;align=center;verticalAlign=middle;resizable=0;points=[];autosize=1;strokeColor=none;fillColor=none;" parent="1" vertex="1">
                    <mxGeometry x="1660" y="260" width="30" height="20" as="geometry"/>
                </mxCell>
                <mxCell id="279" value="no" style="text;html=1;align=center;verticalAlign=middle;resizable=0;points=[];autosize=1;strokeColor=none;fillColor=none;" parent="1" vertex="1">
                    <mxGeometry x="1660" y="440" width="30" height="20" as="geometry"/>
                </mxCell>
                <mxCell id="283" value="" style="edgeStyle=none;rounded=0;html=1;endArrow=classic;endFill=1;" parent="1" source="281" target="200" edge="1">
                    <mxGeometry relative="1" as="geometry"/>
                </mxCell>
                <mxCell id="281" value="return height" style="shape=parallelogram;perimeter=parallelogramPerimeter;whiteSpace=wrap;html=1;fixedSize=1;" parent="1" vertex="1">
                    <mxGeometry x="1558.5" y="580" width="145" height="32.5" as="geometry"/>
                </mxCell>
                <mxCell id="364" value="" style="edgeStyle=none;rounded=0;html=1;fontSize=11;endArrow=classic;endFill=1;" parent="1" source="357" target="362" edge="1">
                    <mxGeometry relative="1" as="geometry"/>
                </mxCell>
                <mxCell id="369" value="" style="edgeStyle=none;rounded=0;html=1;fontSize=11;endArrow=classic;endFill=1;" parent="1" source="357" target="196" edge="1">
                    <mxGeometry relative="1" as="geometry"/>
                </mxCell>
                <mxCell id="357" value="if (!this.isTriangleValid())" style="rhombus;whiteSpace=wrap;html=1;" parent="1" vertex="1">
                    <mxGeometry x="1554.75" y="22.5" width="152.5" height="130" as="geometry"/>
                </mxCell>
                <mxCell id="360" value="no" style="text;html=1;align=center;verticalAlign=middle;resizable=0;points=[];autosize=1;strokeColor=none;fillColor=none;fontSize=11;" parent="1" vertex="1">
                    <mxGeometry x="1646" y="165" width="30" height="20" as="geometry"/>
                </mxCell>
                <mxCell id="361" value="yes" style="text;html=1;align=center;verticalAlign=middle;resizable=0;points=[];autosize=1;strokeColor=none;fillColor=none;fontSize=11;" parent="1" vertex="1">
                    <mxGeometry x="1703.5" y="55" width="30" height="20" as="geometry"/>
                </mxCell>
                <mxCell id="367" style="edgeStyle=none;rounded=0;html=1;fontSize=11;endArrow=none;endFill=0;" parent="1" source="362" edge="1">
                    <mxGeometry relative="1" as="geometry">
                        <mxPoint x="1990" y="390" as="targetPoint"/>
                        <Array as="points">
                            <mxPoint x="1993" y="85"/>
                        </Array>
                    </mxGeometry>
                </mxCell>
                <mxCell id="362" value="const height= -1" style="rounded=1;whiteSpace=wrap;html=1;" parent="1" vertex="1">
                    <mxGeometry x="1750" y="70" width="140" height="30" as="geometry"/>
                </mxCell>
                <mxCell id="404" value="innerCircleRadius()" style="text;html=1;align=center;verticalAlign=middle;resizable=0;points=[];autosize=1;strokeColor=none;fillColor=none;" parent="1" vertex="1">
                    <mxGeometry x="2166" y="-70" width="120" height="20" as="geometry"/>
                </mxCell>
                <mxCell id="436" style="edgeStyle=none;html=1;entryX=0.5;entryY=0;entryDx=0;entryDy=0;fontSize=22;endArrow=classic;endFill=1;" parent="1" source="406" target="426" edge="1">
                    <mxGeometry relative="1" as="geometry"/>
                </mxCell>
                <mxCell id="406" value="const innerCircle = this.triangleArea() / this.triangleSemiperimeter()" style="rounded=1;whiteSpace=wrap;html=1;" parent="1" vertex="1">
                    <mxGeometry x="2111.5" y="225" width="238.5" height="35" as="geometry"/>
                </mxCell>
                <mxCell id="407" style="edgeStyle=none;rounded=0;html=1;entryX=0.5;entryY=0;entryDx=0;entryDy=0;fontSize=11;endArrow=classic;endFill=1;" parent="1" source="408" target="429" edge="1">
                    <mxGeometry relative="1" as="geometry"/>
                </mxCell>
                <mxCell id="408" value="Start" style="ellipse;whiteSpace=wrap;html=1;" parent="1" vertex="1">
                    <mxGeometry x="2171" y="-50" width="120" height="60" as="geometry"/>
                </mxCell>
                <mxCell id="409" value="Stop" style="ellipse;whiteSpace=wrap;html=1;" parent="1" vertex="1">
                    <mxGeometry x="2171" y="365" width="120" height="60" as="geometry"/>
                </mxCell>
                <mxCell id="425" value="" style="edgeStyle=none;rounded=0;html=1;endArrow=classic;endFill=1;" parent="1" source="426" target="409" edge="1">
                    <mxGeometry relative="1" as="geometry"/>
                </mxCell>
                <mxCell id="426" value="return innerCircle" style="shape=parallelogram;perimeter=parallelogramPerimeter;whiteSpace=wrap;html=1;fixedSize=1;" parent="1" vertex="1">
                    <mxGeometry x="2158.5" y="295" width="145" height="32.5" as="geometry"/>
                </mxCell>
                <mxCell id="427" value="" style="edgeStyle=none;rounded=0;html=1;fontSize=11;endArrow=classic;endFill=1;" parent="1" source="429" target="433" edge="1">
                    <mxGeometry relative="1" as="geometry"/>
                </mxCell>
                <mxCell id="428" value="" style="edgeStyle=none;rounded=0;html=1;fontSize=11;endArrow=classic;endFill=1;" parent="1" source="429" target="406" edge="1">
                    <mxGeometry relative="1" as="geometry"/>
                </mxCell>
                <mxCell id="429" value="if (!this.isTriangleValid())" style="rhombus;whiteSpace=wrap;html=1;" parent="1" vertex="1">
                    <mxGeometry x="2154.75" y="42.5" width="152.5" height="130" as="geometry"/>
                </mxCell>
                <mxCell id="430" value="no" style="text;html=1;align=center;verticalAlign=middle;resizable=0;points=[];autosize=1;strokeColor=none;fillColor=none;fontSize=11;" parent="1" vertex="1">
                    <mxGeometry x="2240" y="190" width="30" height="20" as="geometry"/>
                </mxCell>
                <mxCell id="431" value="yes" style="text;html=1;align=center;verticalAlign=middle;resizable=0;points=[];autosize=1;strokeColor=none;fillColor=none;fontSize=11;" parent="1" vertex="1">
                    <mxGeometry x="2307.25" y="75" width="30" height="20" as="geometry"/>
                </mxCell>
                <mxCell id="432" style="edgeStyle=none;rounded=0;html=1;fontSize=11;endArrow=classic;endFill=1;entryX=1;entryY=0.5;entryDx=0;entryDy=0;" parent="1" source="433" target="426" edge="1">
                    <mxGeometry relative="1" as="geometry">
                        <mxPoint x="2590" y="410" as="targetPoint"/>
                        <Array as="points">
                            <mxPoint x="2520" y="105"/>
                            <mxPoint x="2520" y="311"/>
                        </Array>
                    </mxGeometry>
                </mxCell>
                <mxCell id="433" value="const innerCircle= -1" style="rounded=1;whiteSpace=wrap;html=1;" parent="1" vertex="1">
                    <mxGeometry x="2350" y="90" width="140" height="30" as="geometry"/>
                </mxCell>
                <mxCell id="454" value="circumRadiusTriangle()" style="text;html=1;align=center;verticalAlign=middle;resizable=0;points=[];autosize=1;strokeColor=none;fillColor=none;" parent="1" vertex="1">
                    <mxGeometry x="2644.5" y="-70" width="140" height="20" as="geometry"/>
                </mxCell>
                <mxCell id="455" style="edgeStyle=none;html=1;entryX=0.5;entryY=0;entryDx=0;entryDy=0;fontSize=22;endArrow=classic;endFill=1;" parent="1" source="456" target="461" edge="1">
                    <mxGeometry relative="1" as="geometry"/>
                </mxCell>
                <mxCell id="456" value="const circumRadius= (this.sideA * this.sideB * this.sideC) / (4 * this.triangleArea())" style="rounded=1;whiteSpace=wrap;html=1;" parent="1" vertex="1">
                    <mxGeometry x="2600" y="225" width="238.5" height="35" as="geometry"/>
                </mxCell>
                <mxCell id="457" style="edgeStyle=none;rounded=0;html=1;entryX=0.5;entryY=0;entryDx=0;entryDy=0;fontSize=11;endArrow=classic;endFill=1;" parent="1" source="458" target="464" edge="1">
                    <mxGeometry relative="1" as="geometry"/>
                </mxCell>
                <mxCell id="458" value="Start" style="ellipse;whiteSpace=wrap;html=1;" parent="1" vertex="1">
                    <mxGeometry x="2659.5" y="-50" width="120" height="60" as="geometry"/>
                </mxCell>
                <mxCell id="459" value="Stop" style="ellipse;whiteSpace=wrap;html=1;" parent="1" vertex="1">
                    <mxGeometry x="2659.5" y="365" width="120" height="60" as="geometry"/>
                </mxCell>
                <mxCell id="460" value="" style="edgeStyle=none;rounded=0;html=1;endArrow=classic;endFill=1;" parent="1" source="461" target="459" edge="1">
                    <mxGeometry relative="1" as="geometry"/>
                </mxCell>
                <mxCell id="461" value="return circumRadius" style="shape=parallelogram;perimeter=parallelogramPerimeter;whiteSpace=wrap;html=1;fixedSize=1;" parent="1" vertex="1">
                    <mxGeometry x="2647" y="295" width="145" height="32.5" as="geometry"/>
                </mxCell>
                <mxCell id="462" value="" style="edgeStyle=none;rounded=0;html=1;fontSize=11;endArrow=classic;endFill=1;" parent="1" source="464" target="468" edge="1">
                    <mxGeometry relative="1" as="geometry"/>
                </mxCell>
                <mxCell id="463" value="" style="edgeStyle=none;rounded=0;html=1;fontSize=11;endArrow=classic;endFill=1;" parent="1" source="464" target="456" edge="1">
                    <mxGeometry relative="1" as="geometry"/>
                </mxCell>
                <mxCell id="464" value="if (!this.isTriangleValid())" style="rhombus;whiteSpace=wrap;html=1;" parent="1" vertex="1">
                    <mxGeometry x="2643.25" y="42.5" width="152.5" height="130" as="geometry"/>
                </mxCell>
                <mxCell id="465" value="no" style="text;html=1;align=center;verticalAlign=middle;resizable=0;points=[];autosize=1;strokeColor=none;fillColor=none;fontSize=11;" parent="1" vertex="1">
                    <mxGeometry x="2730" y="185" width="30" height="20" as="geometry"/>
                </mxCell>
                <mxCell id="466" value="yes" style="text;html=1;align=center;verticalAlign=middle;resizable=0;points=[];autosize=1;strokeColor=none;fillColor=none;fontSize=11;" parent="1" vertex="1">
                    <mxGeometry x="2792" y="77.5" width="30" height="20" as="geometry"/>
                </mxCell>
                <mxCell id="467" style="edgeStyle=none;rounded=0;html=1;fontSize=11;endArrow=classic;endFill=1;entryX=1;entryY=0.5;entryDx=0;entryDy=0;" parent="1" source="468" target="461" edge="1">
                    <mxGeometry relative="1" as="geometry">
                        <mxPoint x="3078.5" y="410" as="targetPoint"/>
                        <Array as="points">
                            <mxPoint x="3008.5" y="105"/>
                            <mxPoint x="3008.5" y="311"/>
                        </Array>
                    </mxGeometry>
                </mxCell>
                <mxCell id="468" value="const circumRadius= -1" style="rounded=1;whiteSpace=wrap;html=1;" parent="1" vertex="1">
                    <mxGeometry x="2838.5" y="90" width="140" height="30" as="geometry"/>
                </mxCell>
                <mxCell id="469" value="yes" style="text;html=1;align=center;verticalAlign=middle;resizable=0;points=[];autosize=1;strokeColor=none;fillColor=none;" parent="1" vertex="1">
                    <mxGeometry x="1670" y="365" width="30" height="20" as="geometry"/>
                </mxCell>
            </root>
        </mxGraphModel>
    </diagram>
</mxfile>